<svg width="1200" height="520" viewBox="0 0 1200 520" xmlns="http://www.w3.org/2000/svg">
<defs>
<linearGradient id="bg" x1="0" y1="0" x2="1" y2="1"><stop offset="0" stop-color="#030811"/><stop offset=".5" stop-color="#071923"/><stop offset="1" stop-color="#02050a"/></linearGradient>
<linearGradient id="c" x1="0" y1="0" x2="1" y2="0"><stop stop-color="#008cff"/><stop offset=".5" stop-color="#00f5ff"/><stop offset="1" stop-color="#008cff"/></linearGradient>
<filter id="g"><feGaussianBlur stdDeviation="4" result="b"/><feMerge><feMergeNode in="b"/><feMergeNode in="SourceGraphic"/></feMerge></filter>
</defs>
<rect width="1200" height="520" rx="22" fill="url(#bg)"/>
<rect x="10" y="10" width="1180" height="500" rx="20" fill="none" stroke="url(#c)" stroke-width="2" filter="url(#g)"/>
<rect x="25" y="25" width="1150" height="470" rx="14" fill="none" stroke="#00dfff" opacity=".22"/>
<text x="600" y="65" text-anchor="middle" fill="#00efff" font-family="monospace" font-size="25" font-weight="bold" letter-spacing="5">SYSTEM STATUS</text>
<line x1="100" y1="88" x2="1100" y2="88" stroke="#00eaff" opacity=".35"/>
<g font-family="monospace" font-size="15">
<text x="105" y="125" fill="#67efff" font-weight="bold">MODULE</text><text x="700" y="125" fill="#67efff" font-weight="bold">STATUS</text><text x="890" y="125" fill="#67efff" font-weight="bold">SIGNAL</text>
<text x="105" y="160" fill="#e8fbff">SYSTEM CORE</text><text x="700" y="160" fill="#00ffb7">ONLINE</text>
<text x="105" y="200" fill="#e8fbff">JAVA CORE</text><text x="700" y="200" fill="#00ffb7">ACTIVE</text>
<text x="105" y="240" fill="#e8fbff">PYTHON CORE</text><text x="700" y="240" fill="#00ffb7">ACTIVE</text>
<text x="105" y="280" fill="#e8fbff">WEB CORE</text><text x="700" y="280" fill="#00ffb7">ACTIVE</text>
<text x="105" y="320" fill="#e8fbff">SOFTWARE ENGINEERING</text><text x="700" y="320" fill="#ffd166">LEARNING</text>
<text x="105" y="360" fill="#e8fbff">GITHUB</text><text x="700" y="360" fill="#00ffb7">CONNECTED</text>
</g>
<g fill="#0b2630">
<rect x="890" y="148" width="190" height="12" rx="6"/><rect x="890" y="188" width="190" height="12" rx="6"/><rect x="890" y="228" width="190" height="12" rx="6"/><rect x="890" y="268" width="190" height="12" rx="6"/><rect x="890" y="308" width="190" height="12" rx="6"/><rect x="890" y="348" width="190" height="12" rx="6"/>
</g>
<g fill="#00eaff">
<rect x="890" y="148" width="190" height="12" rx="6"/><rect x="890" y="188" width="171" height="12" rx="6"/><rect x="890" y="228" width="152" height="12" rx="6"/><rect x="890" y="268" width="133" height="12" rx="6"/><rect x="890" y="308" width="114" height="12" rx="6"/><rect x="890" y="348" width="190" height="12" rx="6"/>
</g>
<line x1="100" y1="390" x2="1100" y2="390" stroke="#00eaff" opacity=".28"/>
<text x="105" y="425" fill="#00efff" font-family="monospace" font-size="14" font-weight="bold">LIVE DIAGNOSTICS</text>
<text x="105" y="455" fill="#8befff" font-family="monospace" font-size="14">CORE: ONLINE</text>
<text x="420" y="455" fill="#8befff" font-family="monospace" font-size="14">MODE: LEARNING + BUILDING</text>
<text x="860" y="455" fill="#8befff" font-family="monospace" font-size="14">LINK: GITHUB</text>
<text x="600" y="482" text-anchor="middle" fill="#00cfe8" font-family="monospace" font-size="11" letter-spacing="3">J.A.R.V.I.S. // DIAGNOSTIC CHANNEL</text>
</svg>
